<?xml version="1.0" standalone="no"?><!DOCTYPE svg PUBLIC "-//W3C//DTD SVG 1.1//EN" "http://www.w3.org/Graphics/SVG/1.1/DTD/svg11.dtd"><svg t="1541995992714" class="icon" style="" viewBox="0 0 1024 1024" version="1.1" xmlns="http://www.w3.org/2000/svg" p-id="5507" xmlns:xlink="http://www.w3.org/1999/xlink" width="16" height="16"><defs><style type="text/css"></style></defs><path d="M901.12 952.32H125.44c-48.64 0-87.04-38.4-87.04-87.04V519.68c0-48.64 38.4-87.04 87.04-87.04h775.68c48.64 0 87.04 38.4 87.04 87.04v345.6c0 46.08-38.4 87.04-87.04 87.04zM893.44 368.64v-56.32c0-38.4-30.72-69.12-69.12-69.12H202.24c-38.4 0-69.12 30.72-69.12 69.12v56.32h760.32zM798.72 181.76V133.12c0-28.16-23.04-53.76-53.76-53.76H279.04c-28.16 0-53.76 23.04-53.76 53.76v48.64h573.44z" p-id="5508"></path></svg>