<?xml version="1.0" standalone="no"?><!DOCTYPE svg PUBLIC "-//W3C//DTD SVG 1.1//EN" "http://www.w3.org/Graphics/SVG/1.1/DTD/svg11.dtd"><svg t="1541995868743" class="icon" style="" viewBox="0 0 1024 1024" version="1.1" xmlns="http://www.w3.org/2000/svg" p-id="4500" xmlns:xlink="http://www.w3.org/1999/xlink" width="16" height="16"><defs><style type="text/css"></style></defs><path d="M147.93242187 407.57275391l330.93896485 147.35742187c15.82119141 7.37050781 25.83896484 10.24189453 35.73369141 10.24189453 9.93164063 0 20.44335938-2.86699219 37.51171874-10.2243164l331.12792969-147.44267579c10.63476563-4.91308594 17.55087891-17.72490234 18.05888672-33.43886718 0.54052734-16.83017578-6.64189453-31.79267578-18.3234375-38.13310547L552.13964844 162.92128906c-13.15283203-7.72207031-23.92646484-11.16914063-34.94707031-11.16914062-10.8984375 0-22.69335938 3.42949219-38.28515625 11.14716797L147.43671875 336.29785156c-11.79492188 7.64472656-18.97558594 22.86035156-18.30585938 38.75800782 0.61171875 14.42285156 7.58671875 26.55439453 18.8015625 32.51689453z m27.79101563-35.71171875l339.81328125-181.03535157 339.77724609 181.03535157-339.79921875 141.82207031-339.79042968-141.82207031z m678.25371094 309.39257812L515.515625 835.83828125l-339.07060547-154.83691406c-1.98896484-0.71015625-7.875-3.41015625-17.48671875-8.02265625a670.02275391 670.02275391 0 0 1-27.04130859-13.6265625l-6.10576172-3.28886719 0.44472656 6.92578125c0.65742188 10.16455078 4.13964844 44.04990234 21.67207031 53.44101562l330.94335938 147.36181641c15.81328125 7.38457031 25.83105469 10.25595703 35.73017578 10.25595703 9.92285156 0 20.43896484-2.87138672 37.51699219-10.24277343L883.24121094 716.37207031c17.93671875-8.28896484 21.22558594-49.13085938 21.54199219-53.75742187l0.45351562-6.68671875-21.59472656 10.71914062c-21.44267578 10.65146484-27.90966797 13.86914063-29.66484375 14.60742188z m-706.04472657-119.26757812l330.93457032 147.35742187c15.79394531 7.38369141 25.81611328 10.25947266 35.7336914 10.25947266 9.94921875 0 20.46181641-2.87050781 37.52050782-10.24628907l331.11914062-147.43828125c17.93847655-8.27929689 21.22734375-49.12646484 21.54199219-53.75654296l0.45439453-6.69199219-19.62861328 9.75146484c-24.31845703 12.09638672-29.91621094 14.85439453-31.59492188 15.57421875L515.515625 681.38984375l-339.06621094-154.84570313c-1.8984375-0.67412109-7.44785156-3.22119141-17.46386718-8.00068359a666.81914062 666.81914062 0 0 1-27.06328125-13.64765625l-6.11103516-3.28535156 0.44472656 6.92050781c0.65302734 10.17070313 4.13085938 44.07363281 21.67734375 53.45595703z" p-id="4501"></path></svg>