<?xml version="1.0" standalone="no"?><!DOCTYPE svg PUBLIC "-//W3C//DTD SVG 1.1//EN" "http://www.w3.org/Graphics/SVG/1.1/DTD/svg11.dtd"><svg t="1541996007347" class="icon" style="" viewBox="0 0 1024 1024" version="1.1" xmlns="http://www.w3.org/2000/svg" p-id="5757" xmlns:xlink="http://www.w3.org/1999/xlink" width="16" height="16"><defs><style type="text/css"></style></defs><path d="M248.632195 531.390629c-2.993171 3.764744-14.965853 17.142425-17.377785 20.475334-11.861142 16.384156-14.985296 42.081421-10.403955 57.772798 6.489808 22.207791 28.677133 24.697495 45.113477 26.343995 38.107923 3.816932 76.856435 1.215688 115.330702 1.22899 2.509147 0 5.012154-0.01228 7.515161-0.012279a296.143791 296.143791 0 0 1-5.888104-58.83192c0-125.34273 78.347392-232.340649 188.703803-274.873348-8.712429-42.407855-31.880081-82.006735-68.183915-111.121843-76.875878-61.667501-188.683337-55.995315-257.860883 13.077853-75.196633 75.05951-63.040778 198.905142 3.894704 282.754852 15.435551 19.337417 8.416693 31.519878-0.843205 43.185568zM398.005224 671.38608c-91.600231 0.019443-183.187159 0.149403-274.78739 0.398066-39.480176 0.11154-56.159044 17.665335-56.675813 56.486503-0.2415 18.142196-0.038886 36.284391-0.038886 56.43943h400.849504c-31.081902-31.644721-55.028291-70.275553-69.347415-113.323999zM99.055528 814.008358v58.909692h565.536311v-0.326435c-61.34823-2.64627-117.826546-24.010857-163.855882-58.583257H99.055528zM683.824879 512.804319c-35.33681 0-64.125483 29.016871-64.125483 64.720023 0 35.697013 28.749788 64.726164 64.125483 64.726164 35.376719 0 64.119343-29.030174 64.119343-64.726164 0-35.703153-28.77537-64.720024-64.119343-64.720023z" p-id="5758"></path><path d="M690.43953 313.277006c-146.406464 0-265.095657 118.690216-265.095657 265.090541 0 146.406464 118.689193 265.095657 265.095657 265.095657 146.400325 0 265.089517-118.690216 265.089517-265.095657 0-146.400325-118.690216-265.090541-265.089517-265.090541z m177.246867 295.120485c-2.124384 11.260461-8.960069 18.573008-17.730827 18.573007h-1.522679c-24.441669 0-44.303019 20.071128-44.303019 44.748157 0 7.960299 3.823072 17.011442 3.855818 17.090237 4.378727 9.920954 0.99977 22.109554-8.398274 28.702715l-46.231951 25.730011c-2.888793 1.24127-6.025227 1.895163-9.326413 1.895163-7.117095 0-14.037714-2.987031-18.534122-8.012487-5.025457-5.542226-22.429849-21.422915-36.023448-21.422916-12.547781 0-29.514197 14.156418-35.781948 21.030989-4.463662 4.901637-11.378142 7.829316-18.410301 7.829316-3.378957 0-6.5553-0.633427-10.050914-2.208295l-44.545542-25.207101c-8.849552-6.228865-12.181437-18.450211-7.79657-28.383444 0.032746-0.077771 3.855818-9.045003 3.855818-17.044188 0-24.645306-19.860327-44.748157-44.303019-44.748157h-1.855254c-8.43102 0-15.272845-7.27366-17.397228-18.573007-0.163729-0.843204-3.784186-20.463054-3.784187-35.774785 0-15.358803 3.621481-34.971489 3.784187-35.781948 2.124384-11.30037 8.921183-18.574031 17.678637-18.574031h1.535983c24.441669 0 44.303019-20.063965 44.303019-44.748157 0-8.077979-3.816932-17.011442-3.862981-17.076933-4.371564-9.940396-1.006933-22.161742 8.444322-28.749788l47.081295-26.01756c2.888793-1.248434 6.03239-1.850138 9.326413-1.850138 7.03216 0 13.906731 2.856048 18.409279 7.67889 4.940522 5.229095 22.024619 20.187785 35.219129 20.187785 13.071713 0 30.069853-14.639418 34.977629-19.788696 4.496407-4.692882 11.333116-7.516184 18.286482-7.516184 3.385097 0 6.601348 0.64673 10.090822 2.169409l45.434796 25.573446c8.842389 6.235005 12.221346 18.410302 7.842618 28.377304-0.046049 0.084934-3.862981 9.051143-3.862981 17.057491 0 24.638143 19.901259 44.748157 44.297902 44.748157h1.856278c8.483208-0.045025 15.318894 7.228635 17.443277 18.527982 0.163729 0.842181 3.784186 20.384259 3.784187 35.781947-0.002047 15.719007-3.740184 35.573193-3.786233 35.775809z" p-id="5759"></path></svg>