<?xml version="1.0" standalone="no"?><!DOCTYPE svg PUBLIC "-//W3C//DTD SVG 1.1//EN" "http://www.w3.org/Graphics/SVG/1.1/DTD/svg11.dtd"><svg t="1541996057313" class="icon" style="" viewBox="0 0 1024 1024" version="1.1" xmlns="http://www.w3.org/2000/svg" p-id="6504" xmlns:xlink="http://www.w3.org/1999/xlink" width="16" height="16"><defs><style type="text/css"></style></defs><path d="M392.152425 485.754243l-161.109328 0c-52.78418 0-95.659687-42.87039-95.659687-95.655594l0-161.109328c0-52.78418 42.875506-95.659687 95.659687-95.659687l161.186076 0c52.708456 0 95.659687 42.875506 95.659687 95.659687l0 161.186076C487.808018 442.883853 444.937628 485.754243 392.152425 485.754243L392.152425 485.754243zM231.043097 183.675276c-24.935925 0-45.314045 20.297278-45.314045 45.314045l0 161.186076c0 24.936949 20.297278 45.314045 45.314045 45.314045l161.186076 0c24.936949 0 45.314045-20.296255 45.314045-45.314045L437.543218 228.989321c0-24.935925-20.296255-45.314045-45.314045-45.314045L231.043097 183.675276 231.043097 183.675276zM231.043097 183.675276" p-id="6505"></path><path d="M794.923698 485.754243l-161.109328 0c-52.704362 0-95.655594-42.87039-95.655594-95.655594l0-161.109328c0-52.707432 42.87039-95.659687 95.655594-95.659687l161.190169 0c52.703339 0 95.655594 42.875506 95.655594 95.659687l0 161.186076C890.583384 442.883853 847.707878 485.754243 794.923698 485.754243L794.923698 485.754243zM633.81437 183.675276c-24.935925 0-45.309952 20.297278-45.309952 45.314045l0 161.186076c0 24.936949 20.296255 45.314045 45.309952 45.314045l161.190169 0c24.935925 0 45.309952-20.296255 45.309952-45.314045L840.314491 228.989321c0-24.935925-20.297278-45.314045-45.309952-45.314045L633.81437 183.675276 633.81437 183.675276zM633.81437 183.675276" p-id="6506"></path><path d="M392.152425 888.529609l-161.109328 0c-52.707432 0-95.659687-42.875506-95.659687-95.659687l0-161.109328c0-52.704362 42.875506-95.655594 95.659687-95.655594l161.186076 0c52.708456 0 95.659687 42.87039 95.659687 95.655594l0 161.190169C487.808018 845.655126 444.937628 888.529609 392.152425 888.529609L392.152425 888.529609zM231.043097 586.450642c-24.935925 0-45.314045 20.296255-45.314045 45.309952l0 161.190169c0 24.935925 20.297278 45.309952 45.314045 45.309952l161.186076 0c24.936949 0 45.314045-20.297278 45.314045-45.309952L437.543218 631.760594c0-24.935925-20.296255-45.309952-45.314045-45.309952L231.043097 586.450642 231.043097 586.450642zM231.043097 586.450642" p-id="6507"></path><path d="M794.923698 888.529609l-161.109328 0c-52.704362 0-95.655594-42.875506-95.655594-95.659687l0-161.109328c0-52.704362 42.87039-95.655594 95.655594-95.655594l161.190169 0c52.703339 0 95.655594 42.87039 95.655594 95.655594l0 161.190169C890.583384 845.655126 847.707878 888.529609 794.923698 888.529609L794.923698 888.529609zM633.81437 586.450642c-24.935925 0-45.309952 20.296255-45.309952 45.309952l0 161.190169c0 24.935925 20.296255 45.309952 45.309952 45.309952l161.190169 0c24.935925 0 45.309952-20.297278 45.309952-45.309952L840.314491 631.760594c0-24.935925-20.297278-45.309952-45.309952-45.309952L633.81437 586.450642 633.81437 586.450642zM633.81437 586.450642" p-id="6508"></path></svg>