<?xml version="1.0" standalone="no"?><!DOCTYPE svg PUBLIC "-//W3C//DTD SVG 1.1//EN" "http://www.w3.org/Graphics/SVG/1.1/DTD/svg11.dtd"><svg t="1541995972041" class="icon" style="" viewBox="0 0 1024 1024" version="1.1" xmlns="http://www.w3.org/2000/svg" p-id="5127" xmlns:xlink="http://www.w3.org/1999/xlink" width="16" height="16"><defs><style type="text/css"></style></defs><path d="M504.157 111.46l309.568 309.57-214.7 214.698L489.17 525.873 129.683 885.386c-22.055 22.055-57.826 22.055-79.893 0-22.055-22.055-22.055-57.825 0-79.893l359.498-359.497-119.834-119.833 214.702-214.701zM215.169 281.836c17.923 17.923 46.982 17.923 64.905 0l179.757-179.757c17.924-17.924 17.924-46.982 0-64.906-17.923-17.923-46.982-17.923-64.906 0L215.17 216.917c-17.923 17.923-17.923 46.995 0 64.919z m605.827 185.642L641.24 647.233c-17.923 17.924-17.923 46.984 0 64.907 17.924 17.923 46.982 17.923 64.906 0l179.757-179.757c17.923-17.923 17.923-46.982 0-64.905-17.924-17.924-46.984-17.924-64.907 0z m172.447 515.637c0-53.185-43.105-96.291-96.29-96.291H543.13c-53.185 0-96.291 43.106-96.291 96.291h546.603z" p-id="5128"></path></svg>