<?xml version="1.0" standalone="no"?><!DOCTYPE svg PUBLIC "-//W3C//DTD SVG 1.1//EN" "http://www.w3.org/Graphics/SVG/1.1/DTD/svg11.dtd"><svg t="1541995998309" class="icon" style="" viewBox="0 0 1024 1024" version="1.1" xmlns="http://www.w3.org/2000/svg" p-id="5631" xmlns:xlink="http://www.w3.org/1999/xlink" width="16" height="16"><defs><style type="text/css"></style></defs><path d="M238.4 635.79776h260.94848v37.78688c-6.90304 0.37248-13.504 1.03168-20.10624 1.03552-86.25792 0.06912-172.51712 0.11008-258.77376 0.01664-40.70784-0.03968-61.86112-19.79136-62.0672-60.24832-0.52352-103.51104-0.50944-207.0208-0.01024-310.528 0.19328-40.32 21.69856-60.60928 62.05568-60.62976 158.02368-0.06912 316.04992-0.07296 474.06976 0.00384 41.44512 0.02048 62.1184 20.84736 62.21952 62.32448 0.08448 37.17376 0.01664 74.35008 0.01664 112.34816l-39.0592 1.81632V301.4656a2579126.2592 2579126.2592 0 0 1-181.94176 127.15648l47.56352 49.95072-27.4368 29.05472c-18.08896-19.13728-35.0464-37.08032-54.14784-57.2928-29.09696 34.75328-58.78656 34.42944-83.76064 5.3312l-183.1168 173.44768c1.18528 2.22976 2.36672 4.45568 3.54688 6.68416z m5.91744-352.0128c6.1824 5.38368 8.4032 7.70176 10.9824 9.5104 63.77856 44.69248 127.83872 88.98432 191.16288 134.304 10.80064 7.72992 16.95616 3.51488 25.1136-2.21696 61.46048-43.19616 123.04512-86.21056 184.54016-129.35296 4.12672-2.88768 7.83104-6.3744 14.95936-12.24448H244.31744z m-44.81024 18.88128v295.6416c56.56832-52.94848 117.87136-110.32192 180.68608-169.11616-61.37472-42.976-119.9552-83.99616-180.68608-126.52544z" p-id="5632"></path><path d="M755.09888 737.98528c-5.36704 25.38112-13.19552 44.38528-40.36864 45.81632-32.66304 1.72032-37.36704-1.62176-57.26336-46.61376-24.66304 20.22912-48.27264 20.67712-70.43072-4.4288-18.79296-21.2928-10.42688-40.4992 4.55552-62.76096-33.824-4.67968-50.48064-22.16576-46.05312-56.15232 3.30496-25.37344 21.14688-33.39136 46.01216-38.26816-19.68384-26.55616-22.06976-50.5664 5.06368-72.55936 21.89824-17.74976 40.86272-8.73344 63.776 5.80096 3.83104-33.7472 19.776-51.72352 54.40896-48.00512 26.8096 2.87232 34.88 21.0048 40.3776 47.12704 28.20096-23.01952 52.71808-18.98368 73.7024 7.97312 12.06656 15.50464 11.57632 24.23808-5.88544 59.47264 32.0832 4.58752 49.42464 21.02272 45.91744 55.59552-2.79936 27.5904-23.27936 32.89216-46.3872 39.8784 16.59264 23.51744 21.69344 45.58976-2.01344 67.70816-21.67296 20.21888-42.05184 14.49472-65.41184-0.58368z m45.91872-26.53568c3.32544-21.3376-9.95456-36.10496-8.95616-50.5216 1.3632-19.60192 19.96672-21.20832 35.20384-25.75872 3.93472-1.1776 8.96768-9.64736 8.04096-13.42848-1.22112-4.992-7.34592-11.57248-12.20352-12.37376-15.68256-2.58176-30.08256-8.15872-30.75328-24.9408-0.60672-15.16928 21.03424-48.36992 10.22592-59.17696-3.4944-3.4944-15.32672 0.70016-16.448 1.36576-49.696 18.63168-49.66784 19.18976-65.90848-22.49344-1.6896-4.34048-6.78272-9.37216-12.32896-9.37216-7.05024 0-11.59296 6.2208-13.2672 11.104-4.49792 13.12896-7.88736 24.39936-22.72384 31.78112-21.51168 10.70336-33.08416-6.6176-49.49888-12.86272-9.38752-3.3408-10.55232-1.91744-13.14176 1.25312-2.22848 2.73024-5.1136 6.60096-1.3632 12.57984 1.74336 3.51872 2.8352 6.04288 4.19456 8.41728 21.00864 36.62208 16.27264 48.71808-23.23456 63.03232-4.67456 1.69472-11.10784 10.59328-9.97504 13.61536 2.048 5.45664 8.53504 11.2576 14.336 12.96 31.54304 9.27104 38.7584 26.62016 23.05664 55.3472-3.2128 5.8816-5.21344 15.76192-2.42688 20.896 5.92256 10.912 14.44096 4.8256 22.47808-0.25856 26.20032-16.56832 47.44064-8.05376 56.84352 20.896 2.26944 6.97728 6.70208 18.37184 14.5792 18.40896 7.82208 0.03584 12.54784-11.25376 14.60224-18.1376 8.58752-28.78848 28.85632-37.96992 54.0032-21.04576 13.53344 9.10464 23.43936 6.57664 24.6656-1.2864z" p-id="5633"></path><path d="M777.90464 621.97504c0.26624 38.85568-31.91168 71.28448-70.77888 71.32928-37.98656 0.04096-69.92512-31.3728-70.4832-69.31712-0.5824-39.76576 30.02112-71.48288 69.5168-72.04864 39.28832-0.55936 71.47392 30.86208 71.74528 70.03648z m-32.9216 0.6144c-0.0448-21.4336-16.41472-38.5728-37.17248-38.90816-21.536-0.34688-39.10784 17.66528-38.67008 39.6416 0.41216 21.09312 17.37216 37.65376 38.40256 37.50528 21.04064-0.1472 37.47968-16.9408 37.44-38.23872z" p-id="5634"></path></svg>