<?xml version="1.0" standalone="no"?><!DOCTYPE svg PUBLIC "-//W3C//DTD SVG 1.1//EN" "http://www.w3.org/Graphics/SVG/1.1/DTD/svg11.dtd"><svg t="1541996042308" class="icon" style="" viewBox="0 0 1024 1024" version="1.1" xmlns="http://www.w3.org/2000/svg" p-id="6256" xmlns:xlink="http://www.w3.org/1999/xlink" width="16" height="16"><defs><style type="text/css"></style></defs><path d="M506.368 2.688a289.664 289.664 0 1 1 0 579.392 289.664 289.664 0 0 1 0-579.392zM662.08 589.056C820.992 645.568 933.568 786.048 933.568 950.4c0 25.216-2.624 49.728-7.68 73.6H86.784a354.56 354.56 0 0 1-7.744-73.6c0-164.288 112.576-304.832 271.488-361.344 45.952 26.112 99.136 40.96 155.776 40.96s109.76-14.848 155.776-40.96z m3.392 75.904a384.512 384.512 0 0 1-318.4 0C233.216 715.648 148.224 821.696 148.224 950.4l0.064 4.352h715.968V950.4c0.064-128.704-84.8-234.752-198.784-285.44zM506.368 71.936a220.48 220.48 0 1 0-0.064 440.896 220.48 220.48 0 0 0 0.064-440.896z" p-id="6257"></path></svg>