<?xml version="1.0" standalone="no"?><!DOCTYPE svg PUBLIC "-//W3C//DTD SVG 1.1//EN" "http://www.w3.org/Graphics/SVG/1.1/DTD/svg11.dtd"><svg t="1541995919179" class="icon" style="" viewBox="0 0 1057 1024" version="1.1" xmlns="http://www.w3.org/2000/svg" p-id="4754" xmlns:xlink="http://www.w3.org/1999/xlink" width="16.515625" height="16"><defs><style type="text/css"></style></defs><path d="M957.853006 0.413727l-241.038057-0.330189A216.604063 216.604063 0 0 0 528.60715 99.470463a212.641793 212.641793 0 0 0-185.929494-99.386925H110.356591A110.679393 110.679393 0 0 0 0.304557 111.357271V858.90544a91.891632 91.891632 0 0 0 99.056737 99.056736h297.170208a165.09456 165.09456 0 0 0 264.151296 0h297.170208a91.891632 91.891632 0 0 0 99.056736-99.056736V99.470463a91.924651 91.924651 0 0 0-99.056736-99.056736z m33.018912 858.491713a27.537773 27.537773 0 0 1-33.018912 33.018912H627.663886a107.311464 107.311464 0 0 1-198.113472 0H99.361294a27.537773 27.537773 0 0 1-33.018913-33.018912V111.357271a44.410437 44.410437 0 0 1 44.01421-44.575531h232.321065A161.792669 161.792669 0 0 1 495.588238 231.546111v396.226945a30.938721 30.938721 0 0 0 34.174574 26.415129A28.726453 28.726453 0 0 0 561.626062 627.773056V231.546111a163.806823 163.806823 0 0 1 155.188887-164.764371L957.853006 66.451551a27.537773 27.537773 0 0 1 33.018912 33.018912v759.434977z" p-id="4755"></path></svg>