<?xml version="1.0" standalone="no"?><!DOCTYPE svg PUBLIC "-//W3C//DTD SVG 1.1//EN" "http://www.w3.org/Graphics/SVG/1.1/DTD/svg11.dtd"><svg t="1541995986216" class="icon" style="" viewBox="0 0 1024 1024" version="1.1" xmlns="http://www.w3.org/2000/svg" p-id="5377" xmlns:xlink="http://www.w3.org/1999/xlink" width="16" height="16"><defs><style type="text/css"></style></defs><path d="M825.6 51.2h-640A31.9488 31.9488 0 0 0 153.6 83.2v832c0 17.7152 14.336 32 32 32h640c17.7152 0 32-14.336 32-32V83.2A31.9488 31.9488 0 0 0 825.6 51.2z m-259.9936 71.9872h96v209.92l-46.4896-33.8944-49.5104 35.3792V123.1872z m220.0064 752.0256H225.5872V123.1872h280.0128v296.96c0 3.2768 1.024 6.5536 3.0208 9.216 5.12 7.2192 15.104 8.96 22.272 3.7376l83.8144-59.904 81.408 59.392a16.0256 16.0256 0 0 0 25.3952-12.9024v-296.448h64v751.9744h0.1024z" fill="#4A4A4A" p-id="5378"></path></svg>