<?xml version="1.0" standalone="no"?><!DOCTYPE svg PUBLIC "-//W3C//DTD SVG 1.1//EN" "http://www.w3.org/Graphics/SVG/1.1/DTD/svg11.dtd"><svg t="1541996013149" class="icon" style="" viewBox="0 0 1024 1024" version="1.1" xmlns="http://www.w3.org/2000/svg" p-id="5882" xmlns:xlink="http://www.w3.org/1999/xlink" width="16" height="16"><defs><style type="text/css"></style></defs><path d="M533.333333 682.666667h-42.666666v-42.666667a159.146667 159.146667 0 0 1 89.6-145.066667l8.533333-4.266666A135.68 135.68 0 0 0 640 384a131.413333 131.413333 0 0 0-128-128 131.413333 131.413333 0 0 0-128 128H341.333333a170.666667 170.666667 0 1 1 341.333334 0 177.493333 177.493333 0 0 1-72.533334 140.8l-8.533333 4.266667a122.453333 122.453333 0 0 0-68.266667 110.933333z" fill="" p-id="5883"></path><path d="M512 768m-42.666667 0a42.666667 42.666667 0 1 0 85.333334 0 42.666667 42.666667 0 1 0-85.333334 0Z" fill="" p-id="5884"></path><path d="M512 42.666667a469.333333 469.333333 0 0 1 469.333333 469.333333v469.333333H512a469.333333 469.333333 0 0 1 0-938.666666m0-42.666667a512 512 0 0 0 0 1024h512V512A512 512 0 0 0 512 0z" fill="" p-id="5885"></path></svg>