<?xml version="1.0" standalone="no"?><!DOCTYPE svg PUBLIC "-//W3C//DTD SVG 1.1//EN" "http://www.w3.org/Graphics/SVG/1.1/DTD/svg11.dtd"><svg t="1541995979720" class="icon" style="" viewBox="0 0 1024 1024" version="1.1" xmlns="http://www.w3.org/2000/svg" p-id="5251" xmlns:xlink="http://www.w3.org/1999/xlink" width="16" height="16"><defs><style type="text/css"></style></defs><path d="M890.6 392.5l-340-136.4c-8.5-3.4-22.2-3.2-30.8 0.3L176.9 400c-8.5 3.6-8.6 9.2-0.1 12.6l340 136.4c8.5 3.4 22.2 3.3 30.8-0.3l342.9-143.6c8.5-3.6 8.6-9.2 0.1-12.6z" p-id="5252"></path><path d="M887 499.6l-52.5-21.1-290.6 121.7c-8.5 3.6-22.3 3.7-30.8 0.3L225.7 485.2l-52.4 21.9c-8.5 3.6-8.6 9.2-0.1 12.6l340 136.4c8.5 3.4 22.2 3.3 30.8-0.3l342.9-143.6c8.5-3.5 8.5-9.2 0.1-12.6z" p-id="5253"></path><path d="M887 602.3l-52.5-21.1-290.6 121.7c-8.5 3.6-22.3 3.7-30.8 0.3L225.7 587.9l-52.4 21.9c-8.5 3.6-8.6 9.2-0.1 12.6l340 136.4c8.5 3.4 22.2 3.3 30.8-0.3L886.9 615c8.5-3.6 8.5-9.3 0.1-12.7z" p-id="5254"></path></svg>